<svg width="283" height="120" viewBox="0 0 283 120" fill="none" xmlns="http://www.w3.org/2000/svg">
<path d="M226.663 7.75433H44.871L0 51.7973L42.8197 94.0684H228.457L271.277 51.7973L226.663 7.75433Z" fill="#5190AE" fill-opacity="0.3"/>
<path d="M62.2483 14.4847H236.307L281.001 57.3244L236.307 99.6745H112.653L97.2586 114.362H25.0033M25.0033 114.362V108.732H15.0713V118.524H25.0033V114.362ZM231.092 93.7994H97.7552L91.2994 99.4297H61.2551L18.2992 57.0796L62.4966 14.4847M170.01 14.4847L157.844 2H42.6326L18.2992 25.9902" stroke="url(#paint0_linear_1_26)" stroke-width="2.39761"/>
<path d="M108.48 63.4434C107.952 63.4434 107.544 63.3074 107.256 63.0354C106.984 62.7474 106.848 62.3394 106.848 61.8114V48.1554C106.848 47.6274 106.984 47.2274 107.256 46.9554C107.544 46.6674 107.952 46.5234 108.48 46.5234H113.136C115.968 46.5234 118.152 47.2514 119.688 48.7074C121.24 50.1634 122.016 52.2514 122.016 54.9714C122.016 56.3314 121.816 57.5394 121.416 58.5954C121.032 59.6354 120.456 60.5154 119.688 61.2354C118.936 61.9554 118.008 62.5074 116.904 62.8914C115.816 63.2594 114.56 63.4434 113.136 63.4434H108.48ZM109.92 60.8994H112.944C113.936 60.8994 114.792 60.7794 115.512 60.5394C116.248 60.2834 116.856 59.9154 117.336 59.4354C117.832 58.9394 118.2 58.3234 118.44 57.5874C118.68 56.8354 118.8 55.9634 118.8 54.9714C118.8 52.9874 118.312 51.5074 117.336 50.5314C116.36 49.5554 114.896 49.0674 112.944 49.0674H109.92V60.8994ZM126.665 63.6354C126.169 63.6354 125.785 63.4994 125.513 63.2274C125.257 62.9394 125.129 62.5474 125.129 62.0514V48.0834C125.129 47.5714 125.265 47.1874 125.537 46.9314C125.809 46.6594 126.193 46.5234 126.689 46.5234H132.473C134.329 46.5234 135.761 46.9714 136.769 47.8674C137.777 48.7474 138.281 49.9874 138.281 51.5874C138.281 52.6274 138.049 53.5234 137.585 54.2754C137.137 55.0274 136.481 55.6034 135.617 56.0034C134.753 56.4034 133.705 56.6034 132.473 56.6034L132.689 56.2434H133.481C134.137 56.2434 134.705 56.4034 135.185 56.7234C135.681 57.0434 136.113 57.5474 136.481 58.2354L138.281 61.5714C138.473 61.9074 138.561 62.2354 138.545 62.5554C138.529 62.8754 138.409 63.1394 138.185 63.3474C137.961 63.5394 137.633 63.6354 137.201 63.6354C136.769 63.6354 136.417 63.5474 136.145 63.3714C135.873 63.1794 135.633 62.8914 135.425 62.5074L133.001 58.0434C132.713 57.4994 132.369 57.1394 131.969 56.9634C131.585 56.7714 131.089 56.6754 130.481 56.6754H128.201V62.0514C128.201 62.5474 128.073 62.9394 127.817 63.2274C127.561 63.4994 127.177 63.6354 126.665 63.6354ZM128.201 54.3954H131.945C133.049 54.3954 133.881 54.1714 134.441 53.7234C135.017 53.2594 135.305 52.5714 135.305 51.6594C135.305 50.7634 135.017 50.0914 134.441 49.6434C133.881 49.1794 133.049 48.9474 131.945 48.9474H128.201V54.3954ZM141.446 63.6354C141.062 63.6354 140.75 63.5474 140.51 63.3714C140.286 63.1954 140.15 62.9634 140.102 62.6754C140.054 62.3714 140.11 62.0354 140.27 61.6674L146.606 47.6274C146.814 47.1634 147.062 46.8354 147.35 46.6434C147.654 46.4354 147.998 46.3314 148.382 46.3314C148.75 46.3314 149.078 46.4354 149.366 46.6434C149.67 46.8354 149.926 47.1634 150.134 47.6274L156.494 61.6674C156.67 62.0354 156.734 62.3714 156.686 62.6754C156.638 62.9794 156.502 63.2194 156.278 63.3954C156.054 63.5554 155.758 63.6354 155.39 63.6354C154.942 63.6354 154.59 63.5314 154.334 63.3234C154.094 63.0994 153.878 62.7634 153.686 62.3154L152.126 58.6914L153.422 59.5314H143.294L144.59 58.6914L143.054 62.3154C142.846 62.7794 142.63 63.1154 142.406 63.3234C142.182 63.5314 141.862 63.6354 141.446 63.6354ZM148.334 49.8594L144.974 57.8514L144.35 57.0834H152.366L151.766 57.8514L148.382 49.8594H148.334ZM160.577 63.6354C160.129 63.6354 159.785 63.5074 159.545 63.2514C159.305 62.9954 159.185 62.6434 159.185 62.1954V47.7714C159.185 47.3074 159.313 46.9554 159.569 46.7154C159.825 46.4594 160.177 46.3314 160.625 46.3314C161.025 46.3314 161.337 46.4114 161.561 46.5714C161.801 46.7154 162.017 46.9714 162.209 47.3394L168.137 58.3074H167.369L173.297 47.3394C173.489 46.9714 173.697 46.7154 173.921 46.5714C174.145 46.4114 174.457 46.3314 174.857 46.3314C175.305 46.3314 175.649 46.4594 175.889 46.7154C176.129 46.9554 176.249 47.3074 176.249 47.7714V62.1954C176.249 62.6434 176.129 62.9954 175.889 63.2514C175.665 63.5074 175.321 63.6354 174.857 63.6354C174.409 63.6354 174.065 63.5074 173.825 63.2514C173.585 62.9954 173.465 62.6434 173.465 62.1954V51.0834H173.993L168.953 60.2754C168.793 60.5474 168.625 60.7474 168.449 60.8754C168.273 61.0034 168.033 61.0674 167.729 61.0674C167.425 61.0674 167.177 61.0034 166.985 60.8754C166.793 60.7314 166.625 60.5314 166.481 60.2754L161.393 51.0594H161.969V62.1954C161.969 62.6434 161.849 62.9954 161.609 63.2514C161.385 63.5074 161.041 63.6354 160.577 63.6354ZM180.141 63.6354C179.757 63.6354 179.445 63.5474 179.205 63.3714C178.981 63.1954 178.845 62.9634 178.797 62.6754C178.749 62.3714 178.805 62.0354 178.965 61.6674L185.301 47.6274C185.509 47.1634 185.757 46.8354 186.045 46.6434C186.349 46.4354 186.693 46.3314 187.077 46.3314C187.445 46.3314 187.773 46.4354 188.061 46.6434C188.365 46.8354 188.621 47.1634 188.829 47.6274L195.189 61.6674C195.365 62.0354 195.429 62.3714 195.381 62.6754C195.333 62.9794 195.197 63.2194 194.973 63.3954C194.749 63.5554 194.453 63.6354 194.085 63.6354C193.637 63.6354 193.285 63.5314 193.029 63.3234C192.789 63.0994 192.573 62.7634 192.381 62.3154L190.821 58.6914L192.117 59.5314H181.989L183.285 58.6914L181.749 62.3154C181.541 62.7794 181.325 63.1154 181.101 63.3234C180.877 63.5314 180.557 63.6354 180.141 63.6354ZM187.029 49.8594L183.669 57.8514L183.045 57.0834H191.061L190.461 57.8514L187.077 49.8594H187.029Z" fill="#CACACA"/>
<defs>
<linearGradient id="paint0_linear_1_26" x1="20.2517" y1="60.4512" x2="238.406" y2="60.4512" gradientUnits="userSpaceOnUse">
<stop stop-color="#65CFB4"/>
<stop offset="1" stop-color="#5CA8CC"/>
</linearGradient>
</defs>
</svg>
