<svg width="286" height="124" viewBox="0 0 286 124" fill="none" xmlns="http://www.w3.org/2000/svg">
<g filter="url(#filter0_d_1_6)">
<path d="M226.357 8.20602H46.6268L2.26465 52.0509L44.5989 94.1319H228.132L270.466 52.0509L226.357 8.20602Z" fill="#5190AE" fill-opacity="0.3" shape-rendering="crispEdges"/>
</g>
<g filter="url(#filter1_d_1_6)">
<path d="M65.7289 14.4286H237.814L282.001 57.0756L237.814 99.2353H115.562L100.342 113.857H28.9062M28.9062 113.857V108.252H19.0869V118H28.9062V113.857ZM232.658 93.3866H100.833L94.4506 98.9916H64.747L22.2782 56.8319L65.9744 14.4286M172.269 14.4286L160.24 2H46.3356L22.2782 25.8824" stroke="url(#paint0_linear_1_6)" stroke-width="2.38683" shape-rendering="crispEdges"/>
</g>
<path d="M115.047 63.472C114.663 63.472 114.351 63.384 114.111 63.208C113.887 63.032 113.751 62.8 113.703 62.512C113.655 62.208 113.711 61.872 113.871 61.504L120.207 47.464C120.415 47 120.663 46.672 120.951 46.48C121.255 46.272 121.599 46.168 121.983 46.168C122.351 46.168 122.679 46.272 122.967 46.48C123.271 46.672 123.527 47 123.735 47.464L130.095 61.504C130.271 61.872 130.335 62.208 130.287 62.512C130.239 62.816 130.103 63.056 129.879 63.232C129.655 63.392 129.359 63.472 128.991 63.472C128.543 63.472 128.191 63.368 127.935 63.16C127.695 62.936 127.479 62.6 127.287 62.152L125.727 58.528L127.023 59.368H116.895L118.191 58.528L116.655 62.152C116.447 62.616 116.231 62.952 116.007 63.16C115.783 63.368 115.463 63.472 115.047 63.472ZM121.935 49.696L118.575 57.688L117.951 56.92H125.967L125.367 57.688L121.983 49.696H121.935ZM134.275 63.472C133.779 63.472 133.395 63.336 133.123 63.064C132.867 62.776 132.739 62.384 132.739 61.888V47.92C132.739 47.408 132.875 47.024 133.147 46.768C133.419 46.496 133.803 46.36 134.299 46.36H140.083C141.939 46.36 143.371 46.808 144.379 47.704C145.387 48.584 145.891 49.824 145.891 51.424C145.891 52.464 145.659 53.36 145.195 54.112C144.747 54.864 144.091 55.44 143.227 55.84C142.363 56.24 141.315 56.44 140.083 56.44L140.299 56.08H141.091C141.747 56.08 142.315 56.24 142.795 56.56C143.291 56.88 143.723 57.384 144.091 58.072L145.891 61.408C146.083 61.744 146.171 62.072 146.155 62.392C146.139 62.712 146.019 62.976 145.795 63.184C145.571 63.376 145.243 63.472 144.811 63.472C144.379 63.472 144.027 63.384 143.755 63.208C143.483 63.016 143.243 62.728 143.035 62.344L140.611 57.88C140.323 57.336 139.979 56.976 139.579 56.8C139.195 56.608 138.699 56.512 138.091 56.512H135.811V61.888C135.811 62.384 135.683 62.776 135.427 63.064C135.171 63.336 134.787 63.472 134.275 63.472ZM135.811 54.232H139.555C140.659 54.232 141.491 54.008 142.051 53.56C142.627 53.096 142.915 52.408 142.915 51.496C142.915 50.6 142.627 49.928 142.051 49.48C141.491 49.016 140.659 48.784 139.555 48.784H135.811V54.232ZM154.339 63.472C153.843 63.472 153.459 63.336 153.187 63.064C152.931 62.776 152.803 62.384 152.803 61.888V48.928H148.123C147.707 48.928 147.379 48.816 147.139 48.592C146.915 48.352 146.803 48.032 146.803 47.632C146.803 47.216 146.915 46.904 147.139 46.696C147.379 46.472 147.707 46.36 148.123 46.36H160.555C160.971 46.36 161.291 46.472 161.515 46.696C161.755 46.904 161.875 47.216 161.875 47.632C161.875 48.032 161.755 48.352 161.515 48.592C161.291 48.816 160.971 48.928 160.555 48.928H155.875V61.888C155.875 62.384 155.747 62.776 155.491 63.064C155.235 63.336 154.851 63.472 154.339 63.472ZM168.899 63.52C168.195 63.52 167.491 63.464 166.787 63.352C166.083 63.256 165.419 63.104 164.795 62.896C164.171 62.672 163.611 62.4 163.115 62.08C162.827 61.888 162.627 61.656 162.515 61.384C162.403 61.112 162.363 60.848 162.395 60.592C162.443 60.32 162.547 60.088 162.707 59.896C162.883 59.688 163.099 59.56 163.355 59.512C163.611 59.464 163.891 59.536 164.195 59.728C164.899 60.144 165.643 60.448 166.427 60.64C167.211 60.832 168.035 60.928 168.899 60.928C170.163 60.928 171.083 60.72 171.659 60.304C172.235 59.872 172.523 59.32 172.523 58.648C172.523 58.088 172.315 57.648 171.899 57.328C171.499 57.008 170.803 56.744 169.811 56.536L167.171 55.984C165.651 55.664 164.515 55.128 163.763 54.376C163.027 53.608 162.659 52.6 162.659 51.352C162.659 50.568 162.819 49.856 163.139 49.216C163.459 48.576 163.907 48.024 164.483 47.56C165.075 47.096 165.771 46.744 166.571 46.504C167.387 46.248 168.283 46.12 169.259 46.12C170.219 46.12 171.131 46.24 171.995 46.48C172.859 46.72 173.635 47.072 174.323 47.536C174.579 47.712 174.747 47.928 174.827 48.184C174.923 48.44 174.947 48.696 174.899 48.952C174.851 49.192 174.739 49.4 174.563 49.576C174.387 49.752 174.163 49.856 173.891 49.888C173.635 49.92 173.339 49.84 173.003 49.648C172.411 49.312 171.811 49.072 171.203 48.928C170.595 48.784 169.939 48.712 169.235 48.712C168.499 48.712 167.867 48.816 167.339 49.024C166.811 49.232 166.403 49.528 166.115 49.912C165.843 50.28 165.707 50.72 165.707 51.232C165.707 51.808 165.899 52.272 166.283 52.624C166.667 52.96 167.323 53.224 168.251 53.416L170.867 53.968C172.451 54.304 173.627 54.832 174.395 55.552C175.179 56.272 175.571 57.232 175.571 58.432C175.571 59.2 175.411 59.896 175.091 60.52C174.787 61.144 174.339 61.68 173.747 62.128C173.171 62.576 172.475 62.92 171.659 63.16C170.843 63.4 169.923 63.52 168.899 63.52Z" fill="#CACACA"/>
<defs>
<filter id="filter0_d_1_6" x="0.355183" y="8.20602" width="272.02" height="89.7449" filterUnits="userSpaceOnUse" color-interpolation-filters="sRGB">
<feFlood flood-opacity="0" result="BackgroundImageFix"/>
<feColorMatrix in="SourceAlpha" type="matrix" values="0 0 0 0 0 0 0 0 0 0 0 0 0 0 0 0 0 0 127 0" result="hardAlpha"/>
<feOffset dy="1.90947"/>
<feGaussianBlur stdDeviation="0.954733"/>
<feComposite in2="hardAlpha" operator="out"/>
<feColorMatrix type="matrix" values="0 0 0 0 0 0 0 0 0 0 0 0 0 0 0 0 0 0 0.25 0"/>
<feBlend mode="normal" in2="BackgroundImageFix" result="effect1_dropShadow_1_6"/>
<feBlend mode="normal" in="SourceGraphic" in2="effect1_dropShadow_1_6" result="shape"/>
</filter>
<filter id="filter1_d_1_6" x="15.984" y="0.806583" width="269.65" height="122.206" filterUnits="userSpaceOnUse" color-interpolation-filters="sRGB">
<feFlood flood-opacity="0" result="BackgroundImageFix"/>
<feColorMatrix in="SourceAlpha" type="matrix" values="0 0 0 0 0 0 0 0 0 0 0 0 0 0 0 0 0 0 127 0" result="hardAlpha"/>
<feOffset dy="1.90947"/>
<feGaussianBlur stdDeviation="0.954733"/>
<feComposite in2="hardAlpha" operator="out"/>
<feColorMatrix type="matrix" values="0 0 0 0 0 0 0 0 0 0 0 0 0 0 0 0 0 0 0.25 0"/>
<feBlend mode="normal" in2="BackgroundImageFix" result="effect1_dropShadow_1_6"/>
<feBlend mode="normal" in="SourceGraphic" in2="effect1_dropShadow_1_6" result="shape"/>
</filter>
<linearGradient id="paint0_linear_1_6" x1="24.2086" y1="60.1883" x2="239.889" y2="60.1883" gradientUnits="userSpaceOnUse">
<stop stop-color="#65CFB4"/>
<stop offset="1" stop-color="#5CA8CC"/>
</linearGradient>
</defs>
</svg>
