<svg width="283" height="120" viewBox="0 0 283 120" fill="none" xmlns="http://www.w3.org/2000/svg">
<path d="M225.105 8.71335H44.5626L0 52.7563L42.5254 95.0275H226.887L269.413 52.7563L225.105 8.71335Z" fill="#5190AE" fill-opacity="0.3"/>
<path d="M63.7504 14.4847H236.612L280.999 57.3244L236.612 99.6746H113.809L98.5201 114.362H26.7614M26.7614 114.362V108.732H16.8976V118.524H26.7614V114.362ZM231.434 93.7994H99.0133L92.6018 99.4298H62.764L20.1033 57.0796L63.997 14.4847M170.772 14.4847L158.689 2H44.2695L20.1033 25.9902" stroke="url(#paint0_linear_1_16)" stroke-width="2.39761"/>
<path d="M106.309 63.4437C105.781 63.4437 105.373 63.3077 105.085 63.0357C104.813 62.7477 104.677 62.3397 104.677 61.8117V48.1557C104.677 47.6277 104.813 47.2277 105.085 46.9557C105.373 46.6677 105.781 46.5237 106.309 46.5237H110.965C113.797 46.5237 115.981 47.2517 117.517 48.7077C119.069 50.1637 119.845 52.2517 119.845 54.9717C119.845 56.3317 119.645 57.5397 119.245 58.5957C118.861 59.6357 118.285 60.5157 117.517 61.2357C116.765 61.9557 115.837 62.5077 114.733 62.8917C113.645 63.2597 112.389 63.4437 110.965 63.4437H106.309ZM107.749 60.8997H110.773C111.765 60.8997 112.621 60.7797 113.341 60.5397C114.077 60.2837 114.685 59.9157 115.165 59.4357C115.661 58.9397 116.029 58.3237 116.269 57.5877C116.509 56.8357 116.629 55.9637 116.629 54.9717C116.629 52.9877 116.141 51.5077 115.165 50.5317C114.189 49.5557 112.725 49.0677 110.773 49.0677H107.749V60.8997ZM122.775 63.6357C122.391 63.6357 122.079 63.5477 121.839 63.3717C121.615 63.1957 121.479 62.9637 121.431 62.6757C121.383 62.3717 121.439 62.0357 121.599 61.6677L127.935 47.6277C128.143 47.1637 128.391 46.8357 128.679 46.6437C128.983 46.4357 129.327 46.3317 129.711 46.3317C130.079 46.3317 130.407 46.4357 130.695 46.6437C130.999 46.8357 131.255 47.1637 131.463 47.6277L137.823 61.6677C137.999 62.0357 138.063 62.3717 138.015 62.6757C137.967 62.9797 137.831 63.2197 137.607 63.3957C137.383 63.5557 137.087 63.6357 136.719 63.6357C136.271 63.6357 135.919 63.5317 135.663 63.3237C135.423 63.0997 135.207 62.7637 135.015 62.3157L133.455 58.6917L134.751 59.5317H124.623L125.919 58.6917L124.383 62.3157C124.175 62.7797 123.959 63.1157 123.735 63.3237C123.511 63.5317 123.191 63.6357 122.775 63.6357ZM129.663 49.8597L126.303 57.8517L125.679 57.0837H133.695L133.095 57.8517L129.711 49.8597H129.663ZM141.906 63.6357C141.442 63.6357 141.082 63.5077 140.826 63.2517C140.586 62.9957 140.466 62.6277 140.466 62.1477V47.8677C140.466 47.3717 140.586 46.9957 140.826 46.7397C141.082 46.4677 141.41 46.3317 141.81 46.3317C142.178 46.3317 142.45 46.4037 142.626 46.5477C142.818 46.6757 143.042 46.8997 143.298 47.2197L152.49 59.1477H151.866V47.7957C151.866 47.3317 151.986 46.9717 152.226 46.7157C152.482 46.4597 152.842 46.3317 153.306 46.3317C153.77 46.3317 154.122 46.4597 154.362 46.7157C154.602 46.9717 154.722 47.3317 154.722 47.7957V62.1957C154.722 62.6437 154.61 62.9957 154.386 63.2517C154.162 63.5077 153.858 63.6357 153.474 63.6357C153.106 63.6357 152.81 63.5637 152.586 63.4197C152.378 63.2757 152.146 63.0437 151.89 62.7237L142.722 50.7957H143.322V62.1477C143.322 62.6277 143.202 62.9957 142.962 63.2517C142.722 63.5077 142.37 63.6357 141.906 63.6357ZM166.292 63.6837C164.532 63.6837 163.02 63.3317 161.756 62.6277C160.508 61.9077 159.548 60.8997 158.876 59.6037C158.204 58.2917 157.868 56.7477 157.868 54.9717C157.868 53.6437 158.06 52.4517 158.444 51.3957C158.828 50.3237 159.38 49.4117 160.1 48.6597C160.82 47.8917 161.7 47.3077 162.74 46.9077C163.796 46.4917 164.98 46.2837 166.292 46.2837C167.172 46.2837 168.036 46.3957 168.884 46.6197C169.732 46.8437 170.476 47.1637 171.116 47.5797C171.452 47.7877 171.676 48.0437 171.788 48.3477C171.9 48.6357 171.924 48.9237 171.86 49.2117C171.796 49.4837 171.66 49.7157 171.452 49.9077C171.26 50.0997 171.012 50.2117 170.708 50.2437C170.42 50.2597 170.1 50.1557 169.748 49.9317C169.252 49.6117 168.716 49.3797 168.14 49.2357C167.564 49.0917 166.98 49.0197 166.388 49.0197C165.252 49.0197 164.292 49.2517 163.508 49.7157C162.724 50.1797 162.132 50.8517 161.732 51.7317C161.332 52.6117 161.132 53.6917 161.132 54.9717C161.132 56.2357 161.332 57.3157 161.732 58.2117C162.132 59.1077 162.724 59.7877 163.508 60.2517C164.292 60.7157 165.252 60.9477 166.388 60.9477C166.996 60.9477 167.596 60.8757 168.188 60.7317C168.78 60.5717 169.34 60.3317 169.868 60.0117C170.22 59.8037 170.532 59.7157 170.804 59.7477C171.092 59.7637 171.332 59.8597 171.524 60.0357C171.716 60.2117 171.844 60.4357 171.908 60.7077C171.972 60.9637 171.956 61.2357 171.86 61.5237C171.764 61.7957 171.572 62.0357 171.284 62.2437C170.644 62.7077 169.876 63.0677 168.98 63.3237C168.1 63.5637 167.204 63.6837 166.292 63.6837ZM176.364 63.4437C175.836 63.4437 175.428 63.3077 175.14 63.0357C174.868 62.7477 174.732 62.3397 174.732 61.8117V48.1557C174.732 47.6277 174.868 47.2277 175.14 46.9557C175.428 46.6677 175.836 46.5237 176.364 46.5237H184.932C185.332 46.5237 185.636 46.6277 185.844 46.8357C186.068 47.0437 186.18 47.3397 186.18 47.7237C186.18 48.1237 186.068 48.4357 185.844 48.6597C185.636 48.8677 185.332 48.9717 184.932 48.9717H177.684V53.6277H184.404C184.82 53.6277 185.132 53.7317 185.34 53.9397C185.548 54.1477 185.652 54.4517 185.652 54.8517C185.652 55.2517 185.548 55.5557 185.34 55.7637C185.132 55.9717 184.82 56.0757 184.404 56.0757H177.684V60.9957H184.932C185.332 60.9957 185.636 61.0997 185.844 61.3077C186.068 61.5157 186.18 61.8197 186.18 62.2197C186.18 62.6197 186.068 62.9237 185.844 63.1317C185.636 63.3397 185.332 63.4437 184.932 63.4437H176.364Z" fill="#CACACA"/>
<defs>
<linearGradient id="paint0_linear_1_16" x1="22.0424" y1="60.4512" x2="238.697" y2="60.4512" gradientUnits="userSpaceOnUse">
<stop stop-color="#65CFB4"/>
<stop offset="1" stop-color="#5CA8CC"/>
</linearGradient>
</defs>
</svg>
