<svg width="283" height="120" viewBox="0 0 283 120" fill="none" xmlns="http://www.w3.org/2000/svg">
<path d="M226.663 7.75433H44.871L0 51.7973L42.8197 94.0684H228.457L271.277 51.7973L226.663 7.75433Z" fill="#5190AE" fill-opacity="0.3"/>
<path d="M62.2483 14.4847H236.307L281.001 57.3244L236.307 99.6745H112.653L97.2586 114.362H25.0033M25.0033 114.362V108.732H15.0713V118.524H25.0033V114.362ZM231.092 93.7994H97.7552L91.2994 99.4297H61.2551L18.2992 57.0796L62.4966 14.4847M170.01 14.4847L157.844 2H42.6326L18.2992 25.9902" stroke="url(#paint0_linear_1_26)" stroke-width="2.39761"/>
<path d="M108.124 62.4434C107.669 62.4434 107.317 62.3187 107.068 62.0694C106.819 61.8054 106.694 61.446 106.694 60.9914V48.2974C106.694 47.828 106.811 47.476 107.046 47.2414C107.295 46.992 107.647 46.8674 108.102 46.8674C108.557 46.8674 108.901 46.992 109.136 47.2414C109.385 47.476 109.51 47.828 109.51 48.2974V60.0454H115.89C116.286 60.0454 116.587 60.148 116.792 60.3534C117.012 60.5587 117.122 60.852 117.122 61.2334C117.122 61.6147 117.012 61.9154 116.792 62.1354C116.587 62.3407 116.286 62.4434 115.89 62.4434H108.124ZM120.456 62.6194C120.001 62.6194 119.649 62.4947 119.4 62.2454C119.165 61.9814 119.048 61.622 119.048 61.1674V48.2094C119.048 47.74 119.165 47.3807 119.4 47.1314C119.649 46.882 120.001 46.7574 120.456 46.7574C120.91 46.7574 121.255 46.882 121.49 47.1314C121.739 47.3807 121.864 47.74 121.864 48.2094V61.1674C121.864 61.622 121.746 61.9814 121.512 62.2454C121.277 62.4947 120.925 62.6194 120.456 62.6194ZM130.405 62.6194C129.95 62.6194 129.598 62.4947 129.349 62.2454C129.114 61.9814 128.997 61.622 128.997 61.1674V49.2874H124.707C124.325 49.2874 124.025 49.1847 123.805 48.9794C123.599 48.7594 123.496 48.466 123.496 48.0994C123.496 47.718 123.599 47.432 123.805 47.2414C124.025 47.036 124.325 46.9334 124.707 46.9334H136.103C136.484 46.9334 136.777 47.036 136.983 47.2414C137.203 47.432 137.312 47.718 137.312 48.0994C137.312 48.466 137.203 48.7594 136.983 48.9794C136.777 49.1847 136.484 49.2874 136.103 49.2874H131.813V61.1674C131.813 61.622 131.695 61.9814 131.461 62.2454C131.226 62.4947 130.874 62.6194 130.405 62.6194ZM140.417 62.4434C139.933 62.4434 139.559 62.3187 139.295 62.0694C139.045 61.8054 138.921 61.4314 138.921 60.9474V48.4294C138.921 47.9454 139.045 47.5787 139.295 47.3294C139.559 47.0654 139.933 46.9334 140.417 46.9334H148.271C148.637 46.9334 148.916 47.0287 149.107 47.2194C149.312 47.41 149.415 47.6814 149.415 48.0334C149.415 48.4 149.312 48.686 149.107 48.8914C148.916 49.082 148.637 49.1774 148.271 49.1774H141.627V53.4454H147.787C148.168 53.4454 148.454 53.5407 148.645 53.7314C148.835 53.922 148.931 54.2007 148.931 54.5674C148.931 54.934 148.835 55.2127 148.645 55.4034C148.454 55.594 148.168 55.6894 147.787 55.6894H141.627V60.1994H148.271C148.637 60.1994 148.916 60.2947 149.107 60.4854C149.312 60.676 149.415 60.9547 149.415 61.3214C149.415 61.688 149.312 61.9667 149.107 62.1574C148.916 62.348 148.637 62.4434 148.271 62.4434H140.417ZM153.456 62.6194C153.001 62.6194 152.649 62.4947 152.4 62.2454C152.165 61.9814 152.048 61.622 152.048 61.1674V48.3634C152.048 47.894 152.172 47.542 152.422 47.3074C152.671 47.058 153.023 46.9334 153.478 46.9334H158.78C160.481 46.9334 161.794 47.344 162.718 48.1654C163.642 48.972 164.104 50.1087 164.104 51.5754C164.104 52.5287 163.891 53.35 163.466 54.0394C163.055 54.7287 162.454 55.2567 161.662 55.6234C160.87 55.99 159.909 56.1734 158.78 56.1734L158.978 55.8434H159.704C160.305 55.8434 160.826 55.99 161.266 56.2834C161.72 56.5767 162.116 57.0387 162.454 57.6694L164.104 60.7274C164.28 61.0354 164.36 61.336 164.346 61.6294C164.331 61.9227 164.221 62.1647 164.016 62.3554C163.81 62.5314 163.51 62.6194 163.114 62.6194C162.718 62.6194 162.395 62.5387 162.146 62.3774C161.896 62.2014 161.676 61.9374 161.486 61.5854L159.264 57.4934C159 56.9947 158.684 56.6647 158.318 56.5034C157.966 56.3274 157.511 56.2394 156.954 56.2394H154.864V61.1674C154.864 61.622 154.746 61.9814 154.512 62.2454C154.277 62.4947 153.925 62.6194 153.456 62.6194ZM154.864 54.1494H158.296C159.308 54.1494 160.07 53.944 160.584 53.5334C161.112 53.108 161.376 52.4774 161.376 51.6414C161.376 50.82 161.112 50.204 160.584 49.7934C160.07 49.368 159.308 49.1554 158.296 49.1554H154.864V54.1494ZM167.004 62.6194C166.652 62.6194 166.366 62.5387 166.146 62.3774C165.941 62.216 165.816 62.0034 165.772 61.7394C165.728 61.4607 165.78 61.1527 165.926 60.8154L171.734 47.9454C171.925 47.52 172.152 47.2194 172.416 47.0434C172.695 46.8527 173.01 46.7574 173.362 46.7574C173.7 46.7574 174 46.8527 174.264 47.0434C174.543 47.2194 174.778 47.52 174.968 47.9454L180.798 60.8154C180.96 61.1527 181.018 61.4607 180.974 61.7394C180.93 62.018 180.806 62.238 180.6 62.3994C180.395 62.546 180.124 62.6194 179.786 62.6194C179.376 62.6194 179.053 62.524 178.818 62.3334C178.598 62.128 178.4 61.82 178.224 61.4094L176.794 58.0874L177.982 58.8574H168.698L169.886 58.0874L168.478 61.4094C168.288 61.8347 168.09 62.1427 167.884 62.3334C167.679 62.524 167.386 62.6194 167.004 62.6194ZM173.318 49.9914L170.238 57.3174L169.666 56.6134H177.014L176.464 57.3174L173.362 49.9914H173.318ZM184.629 62.6194C184.175 62.6194 183.823 62.4947 183.573 62.2454C183.339 61.9814 183.221 61.622 183.221 61.1674V48.3634C183.221 47.894 183.346 47.542 183.595 47.3074C183.845 47.058 184.197 46.9334 184.651 46.9334H189.953C191.655 46.9334 192.967 47.344 193.891 48.1654C194.815 48.972 195.277 50.1087 195.277 51.5754C195.277 52.5287 195.065 53.35 194.639 54.0394C194.229 54.7287 193.627 55.2567 192.835 55.6234C192.043 55.99 191.083 56.1734 189.953 56.1734L190.151 55.8434H190.877C191.479 55.8434 191.999 55.99 192.439 56.2834C192.894 56.5767 193.29 57.0387 193.627 57.6694L195.277 60.7274C195.453 61.0354 195.534 61.336 195.519 61.6294C195.505 61.9227 195.395 62.1647 195.189 62.3554C194.984 62.5314 194.683 62.6194 194.287 62.6194C193.891 62.6194 193.569 62.5387 193.319 62.3774C193.07 62.2014 192.85 61.9374 192.659 61.5854L190.437 57.4934C190.173 56.9947 189.858 56.6647 189.491 56.5034C189.139 56.3274 188.685 56.2394 188.127 56.2394H186.037V61.1674C186.037 61.622 185.92 61.9814 185.685 62.2454C185.451 62.4947 185.099 62.6194 184.629 62.6194ZM186.037 54.1494H189.469C190.481 54.1494 191.244 53.944 191.757 53.5334C192.285 53.108 192.549 52.4774 192.549 51.6414C192.549 50.82 192.285 50.204 191.757 49.7934C191.244 49.368 190.481 49.1554 189.469 49.1554H186.037V54.1494ZM203.236 62.6194C202.781 62.6194 202.429 62.4947 202.18 62.2454C201.945 61.9814 201.828 61.6147 201.828 61.1454V54.4574L202.422 56.1514L197.12 48.6934C196.929 48.4294 196.841 48.1507 196.856 47.8574C196.885 47.5494 197.01 47.2927 197.23 47.0874C197.45 46.8674 197.758 46.7574 198.154 46.7574C198.447 46.7574 198.711 46.8307 198.946 46.9774C199.195 47.124 199.43 47.3514 199.65 47.6594L203.588 53.2474H202.972L206.932 47.6594C207.166 47.3367 207.394 47.1094 207.614 46.9774C207.834 46.8307 208.105 46.7574 208.428 46.7574C208.809 46.7574 209.102 46.86 209.308 47.0654C209.528 47.256 209.638 47.498 209.638 47.7914C209.652 48.0847 209.55 48.3927 209.33 48.7154L204.072 56.1514L204.644 54.4574V61.1454C204.644 62.128 204.174 62.6194 203.236 62.6194Z" fill="#CACACA"/>
<defs>
<linearGradient id="paint0_linear_1_26" x1="20.2517" y1="60.4512" x2="238.406" y2="60.4512" gradientUnits="userSpaceOnUse">
<stop stop-color="#65CFB4"/>
<stop offset="1" stop-color="#5CA8CC"/>
</linearGradient>
</defs>
</svg>
