<svg width="283" height="120" viewBox="0 0 283 120" fill="none" xmlns="http://www.w3.org/2000/svg">
<path d="M238.69 5.8233H58.1493L13.587 49.7162L56.1122 91.8433H240.473L282.998 49.7162L238.69 5.8233Z" fill="#5190AE" fill-opacity="0.3"/>
<path d="M219.247 14.4422H46.386L1.99944 57.1359L46.386 99.3418H169.189L184.478 113.98H256.236M256.236 113.98V108.368H266.1V118.127H256.236V113.98ZM51.5645 93.4866H183.984L190.396 99.0978H220.233L262.894 56.892L219.001 14.4422M112.226 14.4422L124.309 2H238.728L262.894 25.9085" stroke="url(#paint0_linear_1_21)" stroke-width="2.38944"/>
<path d="M108.288 63.5113C107.84 63.5113 107.496 63.3833 107.256 63.1273C107.016 62.8713 106.896 62.5193 106.896 62.0713V47.6473C106.896 47.1833 107.024 46.8313 107.28 46.5913C107.536 46.3353 107.888 46.2073 108.336 46.2073C108.736 46.2073 109.048 46.2873 109.272 46.4473C109.512 46.5913 109.728 46.8473 109.92 47.2153L115.848 58.1833H115.08L121.008 47.2153C121.2 46.8473 121.408 46.5913 121.632 46.4473C121.856 46.2873 122.168 46.2073 122.568 46.2073C123.016 46.2073 123.36 46.3353 123.6 46.5913C123.84 46.8313 123.96 47.1833 123.96 47.6473V62.0713C123.96 62.5193 123.84 62.8713 123.6 63.1273C123.376 63.3833 123.032 63.5113 122.568 63.5113C122.12 63.5113 121.776 63.3833 121.536 63.1273C121.296 62.8713 121.176 62.5193 121.176 62.0713V50.9593H121.704L116.664 60.1513C116.504 60.4233 116.336 60.6233 116.16 60.7513C115.984 60.8793 115.744 60.9433 115.44 60.9433C115.136 60.9433 114.888 60.8793 114.696 60.7513C114.504 60.6073 114.336 60.4073 114.192 60.1513L109.104 50.9353H109.68V62.0713C109.68 62.5193 109.56 62.8713 109.32 63.1273C109.096 63.3833 108.752 63.5113 108.288 63.5113ZM134.716 63.5593C133.548 63.5593 132.516 63.4073 131.62 63.1033C130.74 62.7993 129.996 62.3513 129.388 61.7593C128.78 61.1513 128.324 60.3993 128.02 59.5033C127.716 58.6073 127.564 57.5673 127.564 56.3833V47.7673C127.564 47.2393 127.692 46.8473 127.948 46.5913C128.22 46.3353 128.604 46.2073 129.1 46.2073C129.596 46.2073 129.972 46.3353 130.228 46.5913C130.5 46.8473 130.636 47.2393 130.636 47.7673V56.3593C130.636 57.8793 130.98 59.0233 131.668 59.7913C132.372 60.5433 133.388 60.9193 134.716 60.9193C136.044 60.9193 137.052 60.5433 137.74 59.7913C138.428 59.0233 138.772 57.8793 138.772 56.3593V47.7673C138.772 47.2393 138.9 46.8473 139.156 46.5913C139.428 46.3353 139.812 46.2073 140.308 46.2073C140.788 46.2073 141.156 46.3353 141.412 46.5913C141.684 46.8473 141.82 47.2393 141.82 47.7673V56.3833C141.82 57.9513 141.548 59.2713 141.004 60.3433C140.476 61.4153 139.684 62.2233 138.628 62.7673C137.572 63.2953 136.268 63.5593 134.716 63.5593ZM151.235 63.5593C150.531 63.5593 149.827 63.5033 149.123 63.3913C148.419 63.2953 147.755 63.1433 147.131 62.9353C146.507 62.7113 145.947 62.4393 145.451 62.1193C145.163 61.9273 144.963 61.6953 144.851 61.4233C144.739 61.1513 144.699 60.8873 144.731 60.6313C144.779 60.3593 144.883 60.1273 145.043 59.9353C145.219 59.7273 145.435 59.5993 145.691 59.5513C145.947 59.5033 146.227 59.5753 146.531 59.7673C147.235 60.1833 147.979 60.4873 148.763 60.6793C149.547 60.8713 150.371 60.9673 151.235 60.9673C152.499 60.9673 153.419 60.7593 153.995 60.3433C154.571 59.9113 154.859 59.3593 154.859 58.6873C154.859 58.1273 154.651 57.6873 154.235 57.3673C153.835 57.0473 153.139 56.7833 152.147 56.5753L149.507 56.0233C147.987 55.7033 146.851 55.1673 146.099 54.4153C145.363 53.6473 144.995 52.6393 144.995 51.3913C144.995 50.6073 145.155 49.8953 145.475 49.2553C145.795 48.6153 146.243 48.0633 146.819 47.5993C147.411 47.1353 148.107 46.7833 148.907 46.5433C149.723 46.2873 150.619 46.1593 151.595 46.1593C152.555 46.1593 153.467 46.2793 154.331 46.5193C155.195 46.7593 155.971 47.1113 156.659 47.5753C156.915 47.7513 157.083 47.9673 157.163 48.2233C157.259 48.4793 157.283 48.7353 157.235 48.9913C157.187 49.2313 157.075 49.4393 156.899 49.6153C156.723 49.7913 156.499 49.8953 156.227 49.9273C155.971 49.9593 155.675 49.8793 155.339 49.6873C154.747 49.3513 154.147 49.1113 153.539 48.9673C152.931 48.8233 152.275 48.7513 151.571 48.7513C150.835 48.7513 150.203 48.8553 149.675 49.0633C149.147 49.2713 148.739 49.5673 148.451 49.9513C148.179 50.3193 148.043 50.7593 148.043 51.2713C148.043 51.8473 148.235 52.3113 148.619 52.6633C149.003 52.9993 149.659 53.2633 150.587 53.4553L153.203 54.0073C154.787 54.3433 155.963 54.8713 156.731 55.5913C157.515 56.3113 157.907 57.2713 157.907 58.4713C157.907 59.2393 157.747 59.9353 157.427 60.5593C157.123 61.1833 156.675 61.7193 156.083 62.1673C155.507 62.6153 154.811 62.9593 153.995 63.1993C153.179 63.4393 152.259 63.5593 151.235 63.5593ZM162.079 63.5113C161.583 63.5113 161.199 63.3753 160.927 63.1033C160.671 62.8153 160.543 62.4233 160.543 61.9273V47.7913C160.543 47.2793 160.671 46.8873 160.927 46.6153C161.199 46.3433 161.583 46.2073 162.079 46.2073C162.575 46.2073 162.951 46.3433 163.207 46.6153C163.479 46.8873 163.615 47.2793 163.615 47.7913V61.9273C163.615 62.4233 163.487 62.8153 163.231 63.1033C162.975 63.3753 162.591 63.5113 162.079 63.5113ZM175.189 63.5593C173.429 63.5593 171.917 63.2073 170.653 62.5033C169.405 61.7833 168.445 60.7753 167.773 59.4793C167.101 58.1673 166.765 56.6233 166.765 54.8473C166.765 53.5193 166.957 52.3273 167.341 51.2713C167.725 50.1993 168.277 49.2873 168.997 48.5353C169.717 47.7673 170.597 47.1833 171.637 46.7833C172.693 46.3673 173.877 46.1593 175.189 46.1593C176.069 46.1593 176.933 46.2713 177.781 46.4953C178.629 46.7193 179.373 47.0393 180.013 47.4553C180.349 47.6633 180.573 47.9193 180.685 48.2233C180.797 48.5113 180.821 48.7993 180.757 49.0873C180.693 49.3593 180.557 49.5913 180.349 49.7833C180.157 49.9753 179.909 50.0873 179.605 50.1193C179.317 50.1353 178.997 50.0313 178.645 49.8073C178.149 49.4873 177.613 49.2553 177.037 49.1113C176.461 48.9673 175.877 48.8953 175.285 48.8953C174.149 48.8953 173.189 49.1273 172.405 49.5913C171.621 50.0553 171.029 50.7273 170.629 51.6073C170.229 52.4873 170.029 53.5673 170.029 54.8473C170.029 56.1113 170.229 57.1913 170.629 58.0873C171.029 58.9833 171.621 59.6633 172.405 60.1273C173.189 60.5913 174.149 60.8233 175.285 60.8233C175.893 60.8233 176.493 60.7513 177.085 60.6073C177.677 60.4473 178.237 60.2073 178.765 59.8873C179.117 59.6793 179.429 59.5913 179.701 59.6233C179.989 59.6393 180.229 59.7353 180.421 59.9113C180.613 60.0873 180.741 60.3113 180.805 60.5833C180.869 60.8393 180.853 61.1113 180.757 61.3993C180.661 61.6713 180.469 61.9113 180.181 62.1193C179.541 62.5833 178.773 62.9433 177.877 63.1993C176.997 63.4393 176.101 63.5593 175.189 63.5593Z" fill="#CACACA"/>
<defs>
<linearGradient id="paint0_linear_1_21" x1="260.955" y1="60.252" x2="44.3012" y2="60.252" gradientUnits="userSpaceOnUse">
<stop stop-color="#65CFB4"/>
<stop offset="1" stop-color="#5CA8CC"/>
</linearGradient>
</defs>
</svg>
