<svg width="285" height="121" viewBox="0 0 285 121" fill="none" xmlns="http://www.w3.org/2000/svg">
<path d="M239.807 7.7735H58.0435L13.1796 51.9627L55.9926 94.3742H241.601L284.414 51.9627L239.807 7.7735Z" fill="#5190AE" fill-opacity="0.3"/>
<path d="M220.717 14.5262H46.6862L1.99917 57.5081L46.6862 99.9989H170.32L185.712 114.736H257.956M257.956 114.736V109.086H267.887V118.911H257.956V114.736ZM51.8996 94.1042H185.216L191.671 99.7533H221.71L264.659 57.2625L220.469 14.5262M112.972 14.5262L125.137 2H240.33L264.659 26.0699" stroke="url(#paint0_linear_1_11)" stroke-width="2.40557"/>
<path d="M113.36 63.7947C112.685 63.7947 112.011 63.741 111.336 63.6337C110.661 63.5417 110.025 63.396 109.427 63.1967C108.829 62.982 108.292 62.7214 107.817 62.4147C107.541 62.2307 107.349 62.0084 107.242 61.7477C107.135 61.487 107.096 61.234 107.127 60.9887C107.173 60.728 107.273 60.5057 107.426 60.3217C107.595 60.1224 107.802 59.9997 108.047 59.9537C108.292 59.9077 108.561 59.9767 108.852 60.1607C109.527 60.5594 110.24 60.8507 110.991 61.0347C111.742 61.2187 112.532 61.3107 113.36 61.3107C114.571 61.3107 115.453 61.1114 116.005 60.7127C116.557 60.2987 116.833 59.7697 116.833 59.1257C116.833 58.589 116.634 58.1674 116.235 57.8607C115.852 57.554 115.185 57.301 114.234 57.1017L111.704 56.5727C110.247 56.266 109.159 55.7524 108.438 55.0317C107.733 54.2957 107.38 53.3297 107.38 52.1337C107.38 51.3824 107.533 50.7 107.84 50.0867C108.147 49.4734 108.576 48.9444 109.128 48.4997C109.695 48.055 110.362 47.7177 111.129 47.4877C111.911 47.2424 112.77 47.1197 113.705 47.1197C114.625 47.1197 115.499 47.2347 116.327 47.4647C117.155 47.6947 117.899 48.032 118.558 48.4767C118.803 48.6454 118.964 48.8524 119.041 49.0977C119.133 49.343 119.156 49.5884 119.11 49.8337C119.064 50.0637 118.957 50.263 118.788 50.4317C118.619 50.6004 118.405 50.7 118.144 50.7307C117.899 50.7614 117.615 50.6847 117.293 50.5007C116.726 50.1787 116.151 49.9487 115.568 49.8107C114.985 49.6727 114.357 49.6037 113.682 49.6037C112.977 49.6037 112.371 49.7034 111.865 49.9027C111.359 50.102 110.968 50.3857 110.692 50.7537C110.431 51.1064 110.301 51.528 110.301 52.0187C110.301 52.5707 110.485 53.0154 110.853 53.3527C111.221 53.6747 111.85 53.9277 112.739 54.1117L115.246 54.6407C116.764 54.9627 117.891 55.4687 118.627 56.1587C119.378 56.8487 119.754 57.7687 119.754 58.9187C119.754 59.6547 119.601 60.3217 119.294 60.9197C119.003 61.5177 118.573 62.0314 118.006 62.4607C117.454 62.89 116.787 63.2197 116.005 63.4497C115.223 63.6797 114.341 63.7947 113.36 63.7947ZM123.753 63.7487C123.277 63.7487 122.909 63.6184 122.649 63.3577C122.403 63.0817 122.281 62.706 122.281 62.2307V48.8447C122.281 48.354 122.411 47.986 122.672 47.7407C122.932 47.48 123.3 47.3497 123.776 47.3497H129.319C131.097 47.3497 132.47 47.7944 133.436 48.6837C134.402 49.573 134.885 50.815 134.885 52.4097C134.885 54.0044 134.402 55.254 133.436 56.1587C132.47 57.048 131.097 57.4927 129.319 57.4927H125.225V62.2307C125.225 62.706 125.102 63.0817 124.857 63.3577C124.611 63.6184 124.243 63.7487 123.753 63.7487ZM125.225 55.1697H128.859C129.901 55.1697 130.691 54.9397 131.228 54.4797C131.764 54.0044 132.033 53.3144 132.033 52.4097C132.033 51.505 131.764 50.8227 131.228 50.3627C130.691 49.9027 129.901 49.6727 128.859 49.6727H125.225V55.1697ZM144.44 63.7947C142.876 63.7947 141.504 63.4497 140.323 62.7597C139.158 62.0697 138.253 61.1037 137.609 59.8617C136.965 58.6044 136.643 57.1324 136.643 55.4457C136.643 54.173 136.827 53.0307 137.195 52.0187C137.563 50.9914 138.085 50.1174 138.759 49.3967C139.449 48.6607 140.27 48.101 141.22 47.7177C142.186 47.319 143.26 47.1197 144.44 47.1197C146.02 47.1197 147.392 47.4647 148.557 48.1547C149.723 48.8294 150.627 49.7877 151.271 51.0297C151.915 52.2717 152.237 53.736 152.237 55.4227C152.237 56.6954 152.053 57.8454 151.685 58.8727C151.317 59.9 150.788 60.7817 150.098 61.5177C149.424 62.2537 148.603 62.821 147.637 63.2197C146.687 63.603 145.621 63.7947 144.44 63.7947ZM144.44 61.2647C145.437 61.2647 146.28 61.0347 146.97 60.5747C147.676 60.1147 148.212 59.4477 148.58 58.5737C148.964 57.6997 149.155 56.657 149.155 55.4457C149.155 53.6057 148.741 52.1797 147.913 51.1677C147.101 50.1557 145.943 49.6497 144.44 49.6497C143.459 49.6497 142.616 49.8797 141.91 50.3397C141.205 50.7844 140.661 51.4437 140.277 52.3177C139.909 53.1764 139.725 54.219 139.725 55.4457C139.725 57.2704 140.139 58.6964 140.967 59.7237C141.795 60.751 142.953 61.2647 144.44 61.2647ZM156.703 63.7487C156.228 63.7487 155.86 63.6184 155.599 63.3577C155.354 63.0817 155.231 62.706 155.231 62.2307V48.8447C155.231 48.354 155.361 47.986 155.622 47.7407C155.883 47.48 156.251 47.3497 156.726 47.3497H162.269C164.048 47.3497 165.42 47.779 166.386 48.6377C167.352 49.481 167.835 50.6694 167.835 52.2027C167.835 53.1994 167.613 54.058 167.168 54.7787C166.739 55.4994 166.11 56.0514 165.282 56.4347C164.454 56.818 163.45 57.0097 162.269 57.0097L162.476 56.6647H163.235C163.864 56.6647 164.408 56.818 164.868 57.1247C165.343 57.4314 165.757 57.9144 166.11 58.5737L167.835 61.7707C168.019 62.0927 168.103 62.407 168.088 62.7137C168.073 63.0204 167.958 63.2734 167.743 63.4727C167.528 63.6567 167.214 63.7487 166.8 63.7487C166.386 63.7487 166.049 63.6644 165.788 63.4957C165.527 63.3117 165.297 63.0357 165.098 62.6677L162.775 58.3897C162.499 57.8684 162.169 57.5234 161.786 57.3547C161.418 57.1707 160.943 57.0787 160.36 57.0787H158.175V62.2307C158.175 62.706 158.052 63.0817 157.807 63.3577C157.562 63.6184 157.194 63.7487 156.703 63.7487ZM158.175 54.8937H161.763C162.821 54.8937 163.618 54.679 164.155 54.2497C164.707 53.805 164.983 53.1457 164.983 52.2717C164.983 51.413 164.707 50.769 164.155 50.3397C163.618 49.895 162.821 49.6727 161.763 49.6727H158.175V54.8937ZM175.931 63.7487C175.456 63.7487 175.088 63.6184 174.827 63.3577C174.582 63.0817 174.459 62.706 174.459 62.2307V49.8107H169.974C169.576 49.8107 169.261 49.7034 169.031 49.4887C168.817 49.2587 168.709 48.952 168.709 48.5687C168.709 48.17 168.817 47.871 169.031 47.6717C169.261 47.457 169.576 47.3497 169.974 47.3497H181.888C182.287 47.3497 182.594 47.457 182.808 47.6717C183.038 47.871 183.153 48.17 183.153 48.5687C183.153 48.952 183.038 49.2587 182.808 49.4887C182.594 49.7034 182.287 49.8107 181.888 49.8107H177.403V62.2307C177.403 62.706 177.281 63.0817 177.035 63.3577C176.79 63.6184 176.422 63.7487 175.931 63.7487ZM189.884 63.7947C189.21 63.7947 188.535 63.741 187.86 63.6337C187.186 63.5417 186.549 63.396 185.951 63.1967C185.353 62.982 184.817 62.7214 184.341 62.4147C184.065 62.2307 183.874 62.0084 183.766 61.7477C183.659 61.487 183.621 61.234 183.651 60.9887C183.697 60.728 183.797 60.5057 183.95 60.3217C184.119 60.1224 184.326 59.9997 184.571 59.9537C184.817 59.9077 185.085 59.9767 185.376 60.1607C186.051 60.5594 186.764 60.8507 187.515 61.0347C188.267 61.2187 189.056 61.3107 189.884 61.3107C191.096 61.3107 191.977 61.1114 192.529 60.7127C193.081 60.2987 193.357 59.7697 193.357 59.1257C193.357 58.589 193.158 58.1674 192.759 57.8607C192.376 57.554 191.709 57.301 190.758 57.1017L188.228 56.5727C186.772 56.266 185.683 55.7524 184.962 55.0317C184.257 54.2957 183.904 53.3297 183.904 52.1337C183.904 51.3824 184.058 50.7 184.364 50.0867C184.671 49.4734 185.1 48.9444 185.652 48.4997C186.22 48.055 186.887 47.7177 187.653 47.4877C188.435 47.2424 189.294 47.1197 190.229 47.1197C191.149 47.1197 192.023 47.2347 192.851 47.4647C193.679 47.6947 194.423 48.032 195.082 48.4767C195.328 48.6454 195.489 48.8524 195.565 49.0977C195.657 49.343 195.68 49.5884 195.634 49.8337C195.588 50.0637 195.481 50.263 195.312 50.4317C195.144 50.6004 194.929 50.7 194.668 50.7307C194.423 50.7614 194.139 50.6847 193.817 50.5007C193.25 50.1787 192.675 49.9487 192.092 49.8107C191.51 49.6727 190.881 49.6037 190.206 49.6037C189.501 49.6037 188.895 49.7034 188.389 49.9027C187.883 50.102 187.492 50.3857 187.216 50.7537C186.956 51.1064 186.825 51.528 186.825 52.0187C186.825 52.5707 187.009 53.0154 187.377 53.3527C187.745 53.6747 188.374 53.9277 189.263 54.1117L191.77 54.6407C193.288 54.9627 194.415 55.4687 195.151 56.1587C195.903 56.8487 196.278 57.7687 196.278 58.9187C196.278 59.6547 196.125 60.3217 195.818 60.9197C195.527 61.5177 195.098 62.0314 194.53 62.4607C193.978 62.89 193.311 63.2197 192.529 63.4497C191.747 63.6797 190.866 63.7947 189.884 63.7947Z" fill="#CACACA"/>
<defs>
<linearGradient id="paint0_linear_1_11" x1="262.707" y1="60.6453" x2="44.5872" y2="60.6453" gradientUnits="userSpaceOnUse">
<stop stop-color="#65CFB4"/>
<stop offset="1" stop-color="#5CA8CC"/>
</linearGradient>
</defs>
</svg>
